<?xml version="1.0" standalone="no"?>
<!DOCTYPE svg PUBLIC "-//W3C//DTD SVG 20010904//EN"
 "http://www.w3.org/TR/2001/REC-SVG-20010904/DTD/svg10.dtd">
<svg version="1.0" xmlns="http://www.w3.org/2000/svg"
 width="959.000000pt" height="201.000000pt" viewBox="0 0 959.000000 201.000000"
 preserveAspectRatio="xMidYMid meet">

<g transform="translate(0.000000,201.000000) scale(0.100000,-0.100000)"
fill="#000000" stroke="none">
<path d="M1345 1700 c-170 -12 -288 -28 -434 -60 -74 -16 -135 -31 -137 -32
-1 -2 147 -3 329 -3 322 -1 383 -5 517 -37 94 -22 150 -40 150 -47 0 -4 -17
-15 -37 -25 -46 -22 -126 -73 -217 -139 l-68 -50 -172 -23 c-409 -55 -795
-178 -1032 -329 -31 -20 -54 -39 -51 -42 3 -3 75 0 159 7 282 23 592 13 785
-25 115 -23 120 -26 129 -82 9 -67 40 -147 86 -221 21 -35 35 -68 32 -73 -19
-31 -222 -83 -409 -104 -202 -23 -227 -26 -223 -30 8 -8 433 -90 543 -105 33
-5 101 -16 150 -24 128 -22 346 -43 591 -57 169 -10 232 -10 315 0 232 28 420
102 575 225 397 314 317 798 -175 1046 -156 78 -503 176 -781 220 -92 14 -476
21 -625 10z m515 -39 c79 -12 173 -29 203 -37 34 -10 16 -22 -65 -44 l-82 -22
-106 25 c-137 34 -242 45 -478 54 -107 3 -188 9 -180 13 66 35 496 42 708 11z
m167 -257 l164 -86 -3 -74 -3 -75 -157 -82 -156 -81 -89 18 c-48 10 -94 22
-102 26 -8 4 -40 66 -72 138 l-57 131 22 19 c43 38 237 141 285 151 2 1 78
-38 168 -85z m749 -6 c41 -23 83 -52 94 -63 l20 -21 -59 -128 c-32 -71 -65
-132 -72 -136 -8 -5 -54 -16 -102 -26 l-89 -19 -156 82 -157 82 -3 74 -3 74
133 71 c73 39 146 77 162 86 27 14 34 13 94 -10 35 -13 98 -43 138 -66z
m-1373 -154 c4 -4 -7 -24 -24 -45 -29 -37 -33 -39 -88 -39 -168 0 -502 -65
-783 -151 -221 -68 -223 -58 -8 34 237 101 573 184 805 200 28 2 59 4 71 5 11
1 24 -1 27 -4z m346 -268 c51 -14 97 -28 102 -33 4 -4 32 -64 62 -133 l55
-125 -61 -62 -61 -63 -197 0 -198 0 -20 26 c-44 56 -111 227 -95 243 3 3 76
43 162 88 86 45 157 83 157 83 0 0 42 -11 94 -24z m1209 -67 c146 -78 152 -82
146 -107 -16 -66 -47 -140 -79 -189 l-35 -53 -198 0 -198 0 -57 58 c-31 32
-57 64 -57 72 0 15 98 239 112 255 11 12 178 54 198 49 9 -2 84 -40 168 -85z
m-481 -321 l62 -63 -55 -120 c-71 -157 -65 -149 -110 -157 -50 -9 -245 -9
-304 0 l-44 7 -62 135 -62 135 61 63 61 62 196 0 196 0 61 -62z m-1237 -233
c85 -8 215 -19 288 -25 113 -10 139 -15 180 -38 43 -25 45 -27 22 -31 -36 -5
-201 15 -455 55 -324 51 -340 68 -35 39z"/>
<path d="M3972 1335 c-29 -8 -66 -22 -83 -31 -54 -28 -120 -96 -152 -159 -28
-55 -31 -69 -32 -155 0 -88 3 -101 33 -162 68 -140 215 -212 382 -188 76 11
140 43 195 98 62 62 89 122 93 210 l4 72 -188 -2 -189 -3 0 -70 0 -70 54 -8
c64 -9 65 -9 56 -36 -8 -26 -73 -45 -126 -36 -84 14 -159 104 -159 191 0 52
36 121 83 158 31 25 49 31 103 34 59 4 70 2 115 -27 28 -17 55 -31 60 -31 13
0 109 72 109 82 0 35 -90 105 -160 126 -64 20 -143 22 -198 7z"/>
<path d="M4947 1340 c-271 -68 -369 -409 -173 -601 77 -75 124 -93 243 -97 96
-4 105 -2 167 27 269 129 265 515 -7 642 -69 32 -168 44 -230 29z m159 -171
c79 -29 137 -139 116 -220 -47 -187 -287 -216 -374 -46 -42 84 -5 212 74 254
59 30 123 35 184 12z"/>
<path d="M5883 1340 c-63 -13 -117 -45 -161 -95 -38 -43 -60 -91 -48 -103 4
-3 34 -9 68 -14 62 -8 63 -8 88 21 34 39 62 52 120 53 56 2 96 -20 111 -59 16
-42 -15 -72 -122 -120 -52 -23 -113 -58 -137 -78 -64 -55 -122 -183 -122 -272
l0 -33 265 0 265 0 5 23 c4 13 5 46 3 73 l-3 49 -167 3 c-134 2 -168 5 -168
16 0 25 59 71 122 95 106 40 162 82 192 142 29 59 31 83 14 140 -34 115 -185
189 -325 159z"/>
<path d="M6540 1332 c-6 -2 -10 -127 -10 -348 l0 -344 79 0 79 0 6 63 c4 34 7
85 9 112 l2 50 83 8 c97 8 147 30 191 84 58 70 67 166 25 251 -49 99 -113 124
-312 126 -78 0 -147 0 -152 -2z m315 -177 c27 -26 31 -54 13 -88 -19 -37 -40
-46 -104 -47 -70 0 -74 4 -74 80 0 77 3 80 77 80 55 0 67 -4 88 -25z"/>
<path d="M7327 1334 c-4 -4 -7 -162 -7 -351 l0 -343 215 0 215 0 5 23 c4 13 5
46 3 73 l-3 49 -135 5 -135 5 -5 270 -5 270 -70 3 c-39 1 -74 0 -78 -4z"/>
<path d="M8275 1317 c-8 -13 -28 -62 -44 -108 -16 -46 -68 -188 -115 -316 -47
-127 -86 -237 -86 -242 0 -7 31 -11 81 -11 l80 0 26 59 25 59 92 6 c100 7 155
-1 167 -24 4 -8 15 -34 25 -57 l17 -43 73 0 c41 0 76 5 79 11 4 5 2 22 -3 37
-18 46 -137 370 -187 508 -53 148 -48 144 -161 144 -45 0 -56 -4 -69 -23z
m124 -292 c38 -101 38 -105 0 -105 -19 0 -43 -3 -54 -5 -42 -11 -49 8 -26 70
43 114 51 118 80 40z"/>
<path d="M8837 1333 c-4 -6 25 -66 64 -134 39 -68 96 -171 126 -229 55 -104
55 -104 52 -185 -1 -44 -2 -95 -1 -113 l2 -33 78 3 77 3 5 120 c6 135 -7 102
148 383 67 123 92 176 83 181 -15 10 -145 11 -158 3 -13 -9 -43 -61 -93 -159
-22 -45 -46 -85 -52 -89 -16 -10 -32 13 -89 121 -28 55 -58 106 -65 114 -15
17 -168 29 -177 14z"/>
</g>
</svg>
